<?xml version="1.0" encoding="UTF-8" standalone="no" ?>
<!DOCTYPE svg PUBLIC "-//W3C//DTD SVG 1.1//EN" "http://www.w3.org/Graphics/SVG/1.1/DTD/svg11.dtd">
<svg xmlns="http://www.w3.org/2000/svg" xmlns:xlink="http://www.w3.org/1999/xlink" version="1.1" width="500" height="500" viewBox="0 0 500 500" xml:space="preserve">
<desc>Created with Fabric.js 3.6.3</desc>
<defs>
</defs>
<g transform="matrix(3.3080953667518336 0 0 3.308095366751833 250.5 231.99999999999997)"  >
<circle style="stroke: none; stroke-width: 0; stroke-dasharray: none; stroke-linecap: butt; stroke-dashoffset: 0; stroke-linejoin: miter; stroke-miterlimit: 4; fill: rgb(237,140,43); fill-rule: evenodd; opacity: 1;"  cx="0" cy="0" r="47.0059" />
</g>
<g transform="matrix(0.28644590432280714 0 0 0.28644590432280714 250.49999999999997 232)"  >
<path style="stroke: none; stroke-width: 0; stroke-dasharray: none; stroke-linecap: butt; stroke-dashoffset: 0; stroke-linejoin: miter; stroke-miterlimit: 4; fill: rgb(253,242,231); fill-rule: evenodd; opacity: 1;"  transform=" translate(-159, -354.5)" d="M 318 0 l 0 709 l -147 0 l 0 -65 l -24 0 l 0 65 l -147 0 l 0 -709 l 147 0 l 0 72 l 24 0 l 0 -72 l 147 0 z m -171 513 l 24 0 l 0 84 l -24 0 l 0 -84 z m 0 -131 l 24 0 l 0 84 l -24 0 l 0 -84 z m 0 -131 l 24 0 l 0 84 l -24 0 l 0 -84 z m 0 -131 l 24 0 l 0 83 l -24 0 l 0 -83 z" stroke-linecap="round" />
</g>
<g transform="matrix(0.48223350253807107 0 0 0.07868020304568528 250.5 314)"  >
<rect style="stroke: none; stroke-width: 1; stroke-dasharray: none; stroke-linecap: butt; stroke-dashoffset: 0; stroke-linejoin: miter; stroke-miterlimit: 4; fill: rgb(253,242,231); fill-rule: evenodd; opacity: 1;"  x="-393.5" y="-393.5" rx="0" ry="0" width="787" height="787" />
</g>
<g transform="matrix(1 0 0 1 250.5028489793894 315.34)" style=""  ><path fill="#ED8C2B" opacity="1" d="M-66.64 8.65L-59.26-2.84L-58.00-5.36L-58.00 11.31L-54.40 11.31L-54.76 8.61L-54.76-12.38L-56.77-12.38L-66.49 2.92L-77.22-12.38L-79.60-12.38L-79.13-9.07L-79.13 11.31L-75.82 11.31L-76.18 8.61L-76.18-5.21L-74.99-2.84Z"/><path fill="#ED8C2B" opacity="1" d="M-50.83 11.31L-47.70 11.31L-45.36 5.12L-36.54 5.12L-34.27 11.31L-30.35 11.31L-32.15 7.35L-39.49-12.85L-41.69-12.38ZM-41.22-5.86L-40.79-7.30L-40.43-5.90L-37.44 2.38L-44.39 2.38Z"/><path fill="#ED8C2B" opacity="1" d="M-30.28 11.31L-27.14 11.31L-24.80 5.12L-15.98 5.12L-13.72 11.31L-9.79 11.31L-11.59 7.35L-18.94-12.85L-21.13-12.38ZM-20.66-5.86L-20.23-7.30L-19.87-5.90L-16.88 2.38L-23.83 2.38Z"/><path fill="#ED8C2B" opacity="1" d="M11.16 11.31L3.78 1.52C6.62 0.19 8.39-2.44 8.39-5.25C8.39-10.11 4.57-12.38 0.61-12.38L-6.08-12.38L-5.62-9.07L-5.62 11.31L-2.02 11.31L-2.38 8.61L-2.38 2.45C-0.25 2.45 0.25 2.45 0.65 2.42L6.98 11.31ZM-2.38-0.21L-2.38-9.71L-0.04-9.71C2.63-9.71 4.97-8.20 4.97-5.25C4.97-2.51 2.63-0.21-0.04-0.21Z"/><path fill="#ED8C2B" opacity="1" d="M32.29-0.39L28.58-0.39L29.20 2.27L29.16 8.57C29.16 8.57 26.71 9.19 24.77 9.19C20.66 9.19 16.60 5.44 16.60-0.39C16.60-5.39 19.98-10.15 24.44-10.15C26.82-10.15 28.80-9.17 30.49-7.41L32.15-9.86C30.02-11.80 27.40-12.81 24.41-12.81C18.07-12.81 13.14-7.41 13.14-0.03C13.14 7.67 18.54 11.78 24.12 11.78C28.69 11.78 32.33 10.41 32.33 10.41Z"/><path fill="#ED8C2B" opacity="1" d="M35.14 11.31L38.27 11.31L40.61 5.12L49.43 5.12L51.70 11.31L55.62 11.31L53.82 7.35L46.48-12.85L44.28-12.38ZM44.75-5.86L45.18-7.30L45.54-5.90L48.53 2.38L41.58 2.38Z"/><path fill="#ED8C2B" opacity="1" d="M78.95-12.38L75.24-12.38L75.71-9.07L75.71-2.37L63.04-2.37L63.04-12.38L59.33-12.38L59.80-9.07L59.80 11.31L63.40 11.31L63.04 8.61L63.04 0.51L75.71 0.51L75.71 11.31L79.31 11.31L78.95 8.61Z"/></g></svg>